<svg width="149" height="42" viewBox="0 0 149 42" fill="none" xmlns="http://www.w3.org/2000/svg">
<path d="M3.00022 26.8823L34.1771 8.88231L37.7771 15.1177L6.60022 33.1177L3.00022 26.8823Z" fill="#EE6430"/>
<path d="M23.9887 3V39H16.7887V3H23.9887Z" fill="#EE6430"/>
<path d="M6.6 8.88231L37.7769 26.8823L34.1769 33.1177L3 15.1177L6.6 8.88231Z" fill="#EE6430"/>
<path d="M23.9887 3V39H16.7887V3H23.9887Z" fill="#EE6430"/>
<path d="M16.7887 39V3H23.9887V39H16.7887Z" fill="#EE6430"/>
<path d="M6.6 8.88231L37.7769 26.8823L34.1769 33.1177L3 15.1177L6.6 8.88231Z" fill="#EE6430"/>
<path d="M3.00022 26.8823L34.1771 8.88231L37.7771 15.1177L6.60022 33.1177L3.00022 26.8823Z" fill="#EE6430"/>
<path d="M6.6 8.88231L37.7769 26.8823L34.1769 33.1177L3 15.1177L6.6 8.88231Z" fill="#EE6430"/>
<path d="M3.00022 26.8823L34.1771 8.88231L37.7771 15.1177L6.60022 33.1177L3.00022 26.8823ZM23.9887 3V39H16.7887V3H23.9887ZM6.6 8.88231L37.7769 26.8823L34.1769 33.1177L3 15.1177L6.6 8.88231Z" stroke="#F8F7F4" stroke-width="5" stroke-linejoin="round"/>
<mask id="path-3-outside-1_685_3" maskUnits="userSpaceOnUse" x="47.8002" y="5" width="102" height="32" fill="black">
<rect fill="white" x="47.8002" y="5" width="102" height="32"/>
<path d="M50.8002 29.0948L54.7615 28.0332C54.9155 28.94 55.3336 29.6809 56.0158 30.2559C56.6981 30.831 57.5453 31.1185 58.5577 31.1185C61.4406 31.1185 62.882 29.6035 62.882 26.5735V25.3791C62.5079 25.9763 61.9357 26.4739 61.1655 26.872C60.3952 27.2701 59.4599 27.4692 58.3596 27.4692C56.2029 27.4692 54.3983 26.7172 52.9459 25.2133C51.5154 23.7093 50.8002 21.8183 50.8002 19.5403C50.8002 17.3286 51.5154 15.4487 52.9459 13.9005C54.3763 12.3523 56.1809 11.5782 58.3596 11.5782C59.548 11.5782 60.5383 11.7994 61.3305 12.2417C62.1228 12.6619 62.673 13.1817 62.981 13.8009V11.8768H67.2064V26.4408C67.2064 28.8957 66.5022 30.9305 65.0937 32.545C63.6853 34.1817 61.5506 35 58.6897 35C56.555 35 54.7615 34.425 53.309 33.2749C51.8785 32.1248 51.0423 30.7314 50.8002 29.0948ZM59.1188 23.6872C60.2412 23.6872 61.1545 23.3112 61.8587 22.5592C62.5849 21.8073 62.948 20.8009 62.948 19.5403C62.948 18.3017 62.5739 17.3065 61.8257 16.5545C61.0995 15.8025 60.1972 15.4265 59.1188 15.4265C57.9965 15.4265 57.0612 15.8025 56.3129 16.5545C55.5867 17.3065 55.2236 18.3017 55.2236 19.5403C55.2236 20.8009 55.5867 21.8073 56.3129 22.5592C57.0392 23.3112 57.9745 23.6872 59.1188 23.6872Z"/>
<path d="M76.0426 34.5024H71.6522V11.8768H75.9106V13.8673C76.3067 13.2038 76.9449 12.6509 77.8252 12.2085C78.7054 11.7441 79.7288 11.5118 80.8951 11.5118C83.2059 11.5118 85.0324 12.3081 86.3749 13.9005C87.7173 15.4708 88.3885 17.5055 88.3885 20.0047C88.3885 22.5039 87.6733 24.5608 86.2428 26.1754C84.8344 27.7899 82.9968 28.5972 80.7301 28.5972C78.5734 28.5972 77.0109 27.9336 76.0426 26.6066V34.5024ZM82.9088 23.4218C83.679 22.5814 84.0641 21.4534 84.0641 20.0379C84.0641 18.6224 83.679 17.5055 82.9088 16.6872C82.1605 15.8689 81.2032 15.4597 80.0369 15.4597C78.8705 15.4597 77.9022 15.8799 77.1319 16.7204C76.3617 17.5387 75.9766 18.6446 75.9766 20.0379C75.9766 21.4313 76.3617 22.5482 77.1319 23.3886C77.9022 24.2291 78.8705 24.6493 80.0369 24.6493C81.2032 24.6493 82.1605 24.2401 82.9088 23.4218Z"/>
<path d="M97.2139 7V11.8768H100.482V15.7915H97.2139V22.6256C97.2139 23.3112 97.3679 23.7978 97.676 24.0853C97.9841 24.3728 98.4683 24.5166 99.1285 24.5166C99.7227 24.5166 100.174 24.4724 100.482 24.3839V28.0332C99.8437 28.2986 99.0185 28.4313 98.0061 28.4313C96.4216 28.4313 95.1672 27.9889 94.243 27.1043C93.3187 26.1975 92.8565 24.9589 92.8565 23.3886V15.7915H89.9186V11.8768H90.7438C91.5581 11.8768 92.1743 11.6446 92.5924 11.1801C93.0326 10.6935 93.2526 10.0632 93.2526 9.2891V7H97.2139Z"/>
<path d="M108.408 23.455C109.222 24.2733 110.201 24.6825 111.345 24.6825C112.49 24.6825 113.458 24.2733 114.25 23.455C115.065 22.6366 115.472 21.4976 115.472 20.0379C115.472 18.5782 115.065 17.4392 114.25 16.6209C113.458 15.8025 112.49 15.3934 111.345 15.3934C110.201 15.3934 109.222 15.8025 108.408 16.6209C107.615 17.4392 107.219 18.5782 107.219 20.0379C107.219 21.4976 107.615 22.6366 108.408 23.455ZM105.239 13.8341C106.867 12.1975 108.903 11.3791 111.345 11.3791C113.788 11.3791 115.813 12.1975 117.419 13.8341C119.048 15.4708 119.862 17.5387 119.862 20.0379C119.862 22.5371 119.048 24.6051 117.419 26.2417C115.813 27.8784 113.788 28.6967 111.345 28.6967C108.903 28.6967 106.867 27.8784 105.239 26.2417C103.632 24.6051 102.829 22.5371 102.829 20.0379C102.829 17.5387 103.632 15.4708 105.239 13.8341Z"/>
<path d="M127.685 23.455C128.499 24.2733 129.479 24.6825 130.623 24.6825C131.767 24.6825 132.736 24.2733 133.528 23.455C134.342 22.6366 134.749 21.4976 134.749 20.0379C134.749 18.5782 134.342 17.4392 133.528 16.6209C132.736 15.8025 131.767 15.3934 130.623 15.3934C129.479 15.3934 128.499 15.8025 127.685 16.6209C126.893 17.4392 126.497 18.5782 126.497 20.0379C126.497 21.4976 126.893 22.6366 127.685 23.455ZM124.516 13.8341C126.145 12.1975 128.18 11.3791 130.623 11.3791C133.066 11.3791 135.09 12.1975 136.697 13.8341C138.325 15.4708 139.14 17.5387 139.14 20.0379C139.14 22.5371 138.325 24.6051 136.697 26.2417C135.09 27.8784 133.066 28.6967 130.623 28.6967C128.18 28.6967 126.145 27.8784 124.516 26.2417C122.91 24.6051 122.106 22.5371 122.106 20.0379C122.106 17.5387 122.91 15.4708 124.516 13.8341Z"/>
<path d="M146.996 28.1991H142.605V7.00002H146.996V28.1991Z"/>
</mask>
<path d="M50.8002 29.0948L54.7615 28.0332C54.9155 28.94 55.3336 29.6809 56.0158 30.2559C56.6981 30.831 57.5453 31.1185 58.5577 31.1185C61.4406 31.1185 62.882 29.6035 62.882 26.5735V25.3791C62.5079 25.9763 61.9357 26.4739 61.1655 26.872C60.3952 27.2701 59.4599 27.4692 58.3596 27.4692C56.2029 27.4692 54.3983 26.7172 52.9459 25.2133C51.5154 23.7093 50.8002 21.8183 50.8002 19.5403C50.8002 17.3286 51.5154 15.4487 52.9459 13.9005C54.3763 12.3523 56.1809 11.5782 58.3596 11.5782C59.548 11.5782 60.5383 11.7994 61.3305 12.2417C62.1228 12.6619 62.673 13.1817 62.981 13.8009V11.8768H67.2064V26.4408C67.2064 28.8957 66.5022 30.9305 65.0937 32.545C63.6853 34.1817 61.5506 35 58.6897 35C56.555 35 54.7615 34.425 53.309 33.2749C51.8785 32.1248 51.0423 30.7314 50.8002 29.0948ZM59.1188 23.6872C60.2412 23.6872 61.1545 23.3112 61.8587 22.5592C62.5849 21.8073 62.948 20.8009 62.948 19.5403C62.948 18.3017 62.5739 17.3065 61.8257 16.5545C61.0995 15.8025 60.1972 15.4265 59.1188 15.4265C57.9965 15.4265 57.0612 15.8025 56.3129 16.5545C55.5867 17.3065 55.2236 18.3017 55.2236 19.5403C55.2236 20.8009 55.5867 21.8073 56.3129 22.5592C57.0392 23.3112 57.9745 23.6872 59.1188 23.6872Z" fill="#222222"/>
<path d="M76.0426 34.5024H71.6522V11.8768H75.9106V13.8673C76.3067 13.2038 76.9449 12.6509 77.8252 12.2085C78.7054 11.7441 79.7288 11.5118 80.8951 11.5118C83.2059 11.5118 85.0324 12.3081 86.3749 13.9005C87.7173 15.4708 88.3885 17.5055 88.3885 20.0047C88.3885 22.5039 87.6733 24.5608 86.2428 26.1754C84.8344 27.7899 82.9968 28.5972 80.7301 28.5972C78.5734 28.5972 77.0109 27.9336 76.0426 26.6066V34.5024ZM82.9088 23.4218C83.679 22.5814 84.0641 21.4534 84.0641 20.0379C84.0641 18.6224 83.679 17.5055 82.9088 16.6872C82.1605 15.8689 81.2032 15.4597 80.0369 15.4597C78.8705 15.4597 77.9022 15.8799 77.1319 16.7204C76.3617 17.5387 75.9766 18.6446 75.9766 20.0379C75.9766 21.4313 76.3617 22.5482 77.1319 23.3886C77.9022 24.2291 78.8705 24.6493 80.0369 24.6493C81.2032 24.6493 82.1605 24.2401 82.9088 23.4218Z" fill="#222222"/>
<path d="M97.2139 7V11.8768H100.482V15.7915H97.2139V22.6256C97.2139 23.3112 97.3679 23.7978 97.676 24.0853C97.9841 24.3728 98.4683 24.5166 99.1285 24.5166C99.7227 24.5166 100.174 24.4724 100.482 24.3839V28.0332C99.8437 28.2986 99.0185 28.4313 98.0061 28.4313C96.4216 28.4313 95.1672 27.9889 94.243 27.1043C93.3187 26.1975 92.8565 24.9589 92.8565 23.3886V15.7915H89.9186V11.8768H90.7438C91.5581 11.8768 92.1743 11.6446 92.5924 11.1801C93.0326 10.6935 93.2526 10.0632 93.2526 9.2891V7H97.2139Z" fill="#222222"/>
<path d="M108.408 23.455C109.222 24.2733 110.201 24.6825 111.345 24.6825C112.49 24.6825 113.458 24.2733 114.25 23.455C115.065 22.6366 115.472 21.4976 115.472 20.0379C115.472 18.5782 115.065 17.4392 114.25 16.6209C113.458 15.8025 112.49 15.3934 111.345 15.3934C110.201 15.3934 109.222 15.8025 108.408 16.6209C107.615 17.4392 107.219 18.5782 107.219 20.0379C107.219 21.4976 107.615 22.6366 108.408 23.455ZM105.239 13.8341C106.867 12.1975 108.903 11.3791 111.345 11.3791C113.788 11.3791 115.813 12.1975 117.419 13.8341C119.048 15.4708 119.862 17.5387 119.862 20.0379C119.862 22.5371 119.048 24.6051 117.419 26.2417C115.813 27.8784 113.788 28.6967 111.345 28.6967C108.903 28.6967 106.867 27.8784 105.239 26.2417C103.632 24.6051 102.829 22.5371 102.829 20.0379C102.829 17.5387 103.632 15.4708 105.239 13.8341Z" fill="#222222"/>
<path d="M127.685 23.455C128.499 24.2733 129.479 24.6825 130.623 24.6825C131.767 24.6825 132.736 24.2733 133.528 23.455C134.342 22.6366 134.749 21.4976 134.749 20.0379C134.749 18.5782 134.342 17.4392 133.528 16.6209C132.736 15.8025 131.767 15.3934 130.623 15.3934C129.479 15.3934 128.499 15.8025 127.685 16.6209C126.893 17.4392 126.497 18.5782 126.497 20.0379C126.497 21.4976 126.893 22.6366 127.685 23.455ZM124.516 13.8341C126.145 12.1975 128.18 11.3791 130.623 11.3791C133.066 11.3791 135.09 12.1975 136.697 13.8341C138.325 15.4708 139.14 17.5387 139.14 20.0379C139.14 22.5371 138.325 24.6051 136.697 26.2417C135.09 27.8784 133.066 28.6967 130.623 28.6967C128.18 28.6967 126.145 27.8784 124.516 26.2417C122.91 24.6051 122.106 22.5371 122.106 20.0379C122.106 17.5387 122.91 15.4708 124.516 13.8341Z" fill="#222222"/>
<path d="M146.996 28.1991H142.605V7.00002H146.996V28.1991Z" fill="#222222"/>
<path d="M50.8002 29.0948L54.7615 28.0332C54.9155 28.94 55.3336 29.6809 56.0158 30.2559C56.6981 30.831 57.5453 31.1185 58.5577 31.1185C61.4406 31.1185 62.882 29.6035 62.882 26.5735V25.3791C62.5079 25.9763 61.9357 26.4739 61.1655 26.872C60.3952 27.2701 59.4599 27.4692 58.3596 27.4692C56.2029 27.4692 54.3983 26.7172 52.9459 25.2133C51.5154 23.7093 50.8002 21.8183 50.8002 19.5403C50.8002 17.3286 51.5154 15.4487 52.9459 13.9005C54.3763 12.3523 56.1809 11.5782 58.3596 11.5782C59.548 11.5782 60.5383 11.7994 61.3305 12.2417C62.1228 12.6619 62.673 13.1817 62.981 13.8009V11.8768H67.2064V26.4408C67.2064 28.8957 66.5022 30.9305 65.0937 32.545C63.6853 34.1817 61.5506 35 58.6897 35C56.555 35 54.7615 34.425 53.309 33.2749C51.8785 32.1248 51.0423 30.7314 50.8002 29.0948ZM59.1188 23.6872C60.2412 23.6872 61.1545 23.3112 61.8587 22.5592C62.5849 21.8073 62.948 20.8009 62.948 19.5403C62.948 18.3017 62.5739 17.3065 61.8257 16.5545C61.0995 15.8025 60.1972 15.4265 59.1188 15.4265C57.9965 15.4265 57.0612 15.8025 56.3129 16.5545C55.5867 17.3065 55.2236 18.3017 55.2236 19.5403C55.2236 20.8009 55.5867 21.8073 56.3129 22.5592C57.0392 23.3112 57.9745 23.6872 59.1188 23.6872Z" stroke="#F8F7F4" stroke-width="4" stroke-linejoin="round" mask="url(#path-3-outside-1_685_3)"/>
<path d="M76.0426 34.5024H71.6522V11.8768H75.9106V13.8673C76.3067 13.2038 76.9449 12.6509 77.8252 12.2085C78.7054 11.7441 79.7288 11.5118 80.8951 11.5118C83.2059 11.5118 85.0324 12.3081 86.3749 13.9005C87.7173 15.4708 88.3885 17.5055 88.3885 20.0047C88.3885 22.5039 87.6733 24.5608 86.2428 26.1754C84.8344 27.7899 82.9968 28.5972 80.7301 28.5972C78.5734 28.5972 77.0109 27.9336 76.0426 26.6066V34.5024ZM82.9088 23.4218C83.679 22.5814 84.0641 21.4534 84.0641 20.0379C84.0641 18.6224 83.679 17.5055 82.9088 16.6872C82.1605 15.8689 81.2032 15.4597 80.0369 15.4597C78.8705 15.4597 77.9022 15.8799 77.1319 16.7204C76.3617 17.5387 75.9766 18.6446 75.9766 20.0379C75.9766 21.4313 76.3617 22.5482 77.1319 23.3886C77.9022 24.2291 78.8705 24.6493 80.0369 24.6493C81.2032 24.6493 82.1605 24.2401 82.9088 23.4218Z" stroke="#F8F7F4" stroke-width="4" stroke-linejoin="round" mask="url(#path-3-outside-1_685_3)"/>
<path d="M97.2139 7V11.8768H100.482V15.7915H97.2139V22.6256C97.2139 23.3112 97.3679 23.7978 97.676 24.0853C97.9841 24.3728 98.4683 24.5166 99.1285 24.5166C99.7227 24.5166 100.174 24.4724 100.482 24.3839V28.0332C99.8437 28.2986 99.0185 28.4313 98.0061 28.4313C96.4216 28.4313 95.1672 27.9889 94.243 27.1043C93.3187 26.1975 92.8565 24.9589 92.8565 23.3886V15.7915H89.9186V11.8768H90.7438C91.5581 11.8768 92.1743 11.6446 92.5924 11.1801C93.0326 10.6935 93.2526 10.0632 93.2526 9.2891V7H97.2139Z" stroke="#F8F7F4" stroke-width="4" stroke-linejoin="round" mask="url(#path-3-outside-1_685_3)"/>
<path d="M108.408 23.455C109.222 24.2733 110.201 24.6825 111.345 24.6825C112.49 24.6825 113.458 24.2733 114.25 23.455C115.065 22.6366 115.472 21.4976 115.472 20.0379C115.472 18.5782 115.065 17.4392 114.25 16.6209C113.458 15.8025 112.49 15.3934 111.345 15.3934C110.201 15.3934 109.222 15.8025 108.408 16.6209C107.615 17.4392 107.219 18.5782 107.219 20.0379C107.219 21.4976 107.615 22.6366 108.408 23.455ZM105.239 13.8341C106.867 12.1975 108.903 11.3791 111.345 11.3791C113.788 11.3791 115.813 12.1975 117.419 13.8341C119.048 15.4708 119.862 17.5387 119.862 20.0379C119.862 22.5371 119.048 24.6051 117.419 26.2417C115.813 27.8784 113.788 28.6967 111.345 28.6967C108.903 28.6967 106.867 27.8784 105.239 26.2417C103.632 24.6051 102.829 22.5371 102.829 20.0379C102.829 17.5387 103.632 15.4708 105.239 13.8341Z" stroke="#F8F7F4" stroke-width="4" stroke-linejoin="round" mask="url(#path-3-outside-1_685_3)"/>
<path d="M127.685 23.455C128.499 24.2733 129.479 24.6825 130.623 24.6825C131.767 24.6825 132.736 24.2733 133.528 23.455C134.342 22.6366 134.749 21.4976 134.749 20.0379C134.749 18.5782 134.342 17.4392 133.528 16.6209C132.736 15.8025 131.767 15.3934 130.623 15.3934C129.479 15.3934 128.499 15.8025 127.685 16.6209C126.893 17.4392 126.497 18.5782 126.497 20.0379C126.497 21.4976 126.893 22.6366 127.685 23.455ZM124.516 13.8341C126.145 12.1975 128.18 11.3791 130.623 11.3791C133.066 11.3791 135.09 12.1975 136.697 13.8341C138.325 15.4708 139.14 17.5387 139.14 20.0379C139.14 22.5371 138.325 24.6051 136.697 26.2417C135.09 27.8784 133.066 28.6967 130.623 28.6967C128.18 28.6967 126.145 27.8784 124.516 26.2417C122.91 24.6051 122.106 22.5371 122.106 20.0379C122.106 17.5387 122.91 15.4708 124.516 13.8341Z" stroke="#F8F7F4" stroke-width="4" stroke-linejoin="round" mask="url(#path-3-outside-1_685_3)"/>
<path d="M146.996 28.1991H142.605V7.00002H146.996V28.1991Z" stroke="#F8F7F4" stroke-width="4" stroke-linejoin="round" mask="url(#path-3-outside-1_685_3)"/>
</svg>
