<svg width="178" height="36" viewBox="0 0 178 36" fill="none" xmlns="http://www.w3.org/2000/svg">
<path d="M14.4004 0H18.0004V18H16.2004L14.4004 0Z" fill="#EE6430"/>
<path d="M21.6006 0H18.0006V18H19.8006L21.6006 0Z" fill="#EE6430"/>
<path d="M14.4004 36H18.0004V18H16.2004L14.4004 36Z" fill="#EE6430"/>
<path d="M21.6006 36H18.0006V18H19.8006L21.6006 36Z" fill="#EE6430"/>
<path d="M0 21.6001L0 18.0001H18V19.8001L0 21.6001Z" fill="#EE6430"/>
<path d="M0 14.3999L0 17.9999H18V16.1999L0 14.3999Z" fill="#EE6430"/>
<path d="M36 21.6001V18.0001H18V19.8001L36 21.6001Z" fill="#EE6430"/>
<path d="M36 14.3999V17.9999H18V16.1999L36 14.3999Z" fill="#EE6430"/>
<path d="M2.72656 7.81738L5.27215 5.27179L18.0001 17.9997L16.7273 19.2725L2.72656 7.81738Z" fill="#EE6430"/>
<path d="M7.81836 2.72607L5.27277 5.27166L18.0007 17.9996L19.2735 16.7268L7.81836 2.72607Z" fill="#EE6430"/>
<path d="M28.1826 33.2734L30.7282 30.7278L18.0003 17.9999L16.7275 19.2727L28.1826 33.2734Z" fill="#EE6430"/>
<path d="M33.2734 28.1821L30.7278 30.7277L17.9999 17.9998L19.2727 16.727L33.2734 28.1821Z" fill="#EE6430"/>
<path d="M28.1816 2.72607L30.7272 5.27166L17.9993 17.9996L16.7265 16.7268L28.1816 2.72607Z" fill="#EE6430"/>
<path d="M33.2725 7.81738L30.7269 5.27179L17.9989 17.9997L19.2717 19.2725L33.2725 7.81738Z" fill="#EE6430"/>
<path d="M2.72656 28.1826L5.27215 30.7282L18.0001 18.0003L16.7273 16.7275L2.72656 28.1826Z" fill="#EE6430"/>
<path d="M7.81836 33.2739L5.27277 30.7283L18.0007 18.0004L19.2735 19.2732L7.81836 33.2739Z" fill="#EE6430"/>
<path d="M14.4004 0H18.0004V18H16.2004L14.4004 0Z" fill="#EE6430"/>
<path d="M21.6006 0H18.0006V18H19.8006L21.6006 0Z" fill="#EE6430"/>
<path d="M14.4004 36H18.0004V18H16.2004L14.4004 36Z" fill="#EE6430"/>
<path d="M21.6006 36H18.0006V18H19.8006L21.6006 36Z" fill="#EE6430"/>
<path d="M0 21.6001L0 18.0001H18V19.8001L0 21.6001Z" fill="#EE6430"/>
<path d="M0 14.3999L0 17.9999H18V16.1999L0 14.3999Z" fill="#EE6430"/>
<path d="M36 21.6001V18.0001H18V19.8001L36 21.6001Z" fill="#EE6430"/>
<path d="M36 14.3999V17.9999H18V16.1999L36 14.3999Z" fill="#EE6430"/>
<path d="M2.72656 7.81738L5.27215 5.27179L18.0001 17.9997L16.7273 19.2725L2.72656 7.81738Z" fill="#EE6430"/>
<path d="M7.81836 2.72607L5.27277 5.27166L18.0007 17.9996L19.2735 16.7268L7.81836 2.72607Z" fill="#EE6430"/>
<path d="M28.1826 33.2734L30.7282 30.7278L18.0003 17.9999L16.7275 19.2727L28.1826 33.2734Z" fill="#EE6430"/>
<path d="M33.2734 28.1821L30.7278 30.7277L17.9999 17.9998L19.2727 16.727L33.2734 28.1821Z" fill="#EE6430"/>
<path d="M28.1816 2.72607L30.7272 5.27166L17.9993 17.9996L16.7265 16.7268L28.1816 2.72607Z" fill="#EE6430"/>
<path d="M33.2725 7.81738L30.7269 5.27179L17.9989 17.9997L19.2717 19.2725L33.2725 7.81738Z" fill="#EE6430"/>
<path d="M2.72656 28.1826L5.27215 30.7282L18.0001 18.0003L16.7273 16.7275L2.72656 28.1826Z" fill="#EE6430"/>
<path d="M7.81836 33.2739L5.27277 30.7283L18.0007 18.0004L19.2735 19.2732L7.81836 33.2739Z" fill="#EE6430"/>
<path d="M65.8722 27.0319H62.1783V13.494L56.6374 27.0319H53.5139L47.973 13.603V27.0319H44.3877V7.71934H49.331L55.1164 21.6658L60.7659 7.71934H65.8722V27.0319Z" fill="white"/>
<path d="M72.5592 18.8057H78.5347C78.4985 18.0611 78.2269 17.4346 77.7199 16.9262C77.231 16.4177 76.5067 16.1635 75.547 16.1635C74.6778 16.1635 73.9716 16.4359 73.4284 16.9807C72.8852 17.5254 72.5954 18.1338 72.5592 18.8057ZM78.8878 22.2923L81.9027 23.1912C81.5405 24.426 80.8253 25.443 79.757 26.242C78.7067 27.041 77.3939 27.4405 75.8186 27.4405C73.8992 27.4405 72.2695 26.7958 70.9295 25.5065C69.5896 24.199 68.9196 22.4557 68.9196 20.2766C68.9196 18.2064 69.5715 16.5176 70.8752 15.2101C72.179 13.8845 73.7181 13.2217 75.4926 13.2217C77.5569 13.2217 79.1685 13.8391 80.3273 15.0739C81.5043 16.3088 82.0928 18.0067 82.0928 20.1676C82.0928 20.3129 82.0838 20.4763 82.0657 20.6579C82.0657 20.8395 82.0657 20.9848 82.0657 21.0938L82.0385 21.2844H72.4777C72.514 22.1561 72.858 22.8825 73.5099 23.4636C74.1617 24.0447 74.9404 24.3352 75.8457 24.3352C77.3849 24.3352 78.3989 23.6543 78.8878 22.2923Z" fill="white"/>
<path d="M83.9869 27.7674L87.2462 26.8957C87.373 27.6402 87.717 28.2486 88.2784 28.7207C88.8397 29.1929 89.5368 29.429 90.3698 29.429C92.7419 29.429 93.9279 28.185 93.9279 25.6972V24.7166C93.6201 25.2069 93.1493 25.6155 92.5155 25.9423C91.8818 26.2692 91.1122 26.4326 90.2068 26.4326C88.4323 26.4326 86.9475 25.8152 85.7524 24.5804C84.5754 23.3455 83.9869 21.7929 83.9869 19.9225C83.9869 18.1065 84.5754 16.563 85.7524 15.2918C86.9294 14.0207 88.4142 13.3851 90.2068 13.3851C91.1846 13.3851 91.9995 13.5667 92.6513 13.9299C93.3032 14.2749 93.7559 14.7016 94.0094 15.2101V13.6302H97.486V25.5882C97.486 27.6039 96.9066 29.2746 95.7477 30.6002C94.5888 31.944 92.8324 32.6159 90.4784 32.6159C88.722 32.6159 87.2462 32.1438 86.0511 31.1995C84.8742 30.2552 84.1861 29.1112 83.9869 27.7674ZM90.8315 23.3274C91.755 23.3274 92.5065 23.0187 93.0859 22.4013C93.6835 21.7838 93.9822 20.9576 93.9822 19.9225C93.9822 18.9056 93.6744 18.0884 93.0587 17.471C92.4612 16.8535 91.7188 16.5448 90.8315 16.5448C89.908 16.5448 89.1385 16.8535 88.5228 17.471C87.9253 18.0884 87.6265 18.9056 87.6265 19.9225C87.6265 20.9576 87.9253 21.7838 88.5228 22.4013C89.1204 23.0187 89.8899 23.3274 90.8315 23.3274Z" fill="white"/>
<path d="M100.197 23.3819C100.197 22.2378 100.568 21.3208 101.31 20.6307C102.053 19.9406 103.012 19.5048 104.189 19.3232L107.476 18.8329C108.146 18.7421 108.481 18.4243 108.481 17.8795C108.481 17.3711 108.282 16.9534 107.883 16.6265C107.503 16.2997 106.951 16.1362 106.226 16.1362C105.466 16.1362 104.859 16.3451 104.407 16.7627C103.972 17.1804 103.728 17.698 103.673 18.3154L100.468 17.6344C100.595 16.4722 101.165 15.4462 102.179 14.5564C103.193 13.6666 104.533 13.2217 106.199 13.2217C108.191 13.2217 109.658 13.7029 110.599 14.6653C111.541 15.6096 112.012 16.8263 112.012 18.3154V24.9073C112.012 25.7063 112.066 26.4145 112.175 27.0319H108.861C108.771 26.6324 108.725 26.0967 108.725 25.4248C107.874 26.7504 106.561 27.4133 104.787 27.4133C103.411 27.4133 102.297 27.0137 101.446 26.2147C100.613 25.4157 100.197 24.4714 100.197 23.3819ZM105.547 24.7166C106.398 24.7166 107.096 24.4805 107.639 24.0084C108.2 23.5181 108.481 22.719 108.481 21.6113V21.0121L105.466 21.4751C104.361 21.6386 103.809 22.2015 103.809 23.1639C103.809 23.5998 103.963 23.972 104.271 24.2808C104.579 24.5713 105.004 24.7166 105.547 24.7166Z" fill="white"/>
<path d="M115.925 7.71934H122.851C124.68 7.71934 126.11 8.20057 127.142 9.16302C128.193 10.1255 128.718 11.3785 128.718 12.922C128.718 13.9026 128.455 14.7743 127.93 15.537C127.405 16.2815 126.735 16.79 125.92 17.0624C126.898 17.2984 127.704 17.8342 128.337 18.6695C128.989 19.4867 129.315 20.4763 129.315 21.6386C129.315 23.2184 128.772 24.5168 127.686 25.5338C126.599 26.5325 125.16 27.0319 123.367 27.0319H115.925V7.71934ZM119.619 15.7004H122.28C123.131 15.7004 123.801 15.4825 124.29 15.0467C124.779 14.6109 125.024 14.0207 125.024 13.2761C125.024 12.5316 124.779 11.9505 124.29 11.5328C123.82 11.097 123.141 10.8791 122.253 10.8791H119.619V15.7004ZM119.619 23.8994H122.661C123.566 23.8994 124.272 23.6815 124.779 23.2457C125.304 22.7917 125.567 22.1743 125.567 21.3934C125.567 20.6125 125.313 19.986 124.806 19.5139C124.318 19.0418 123.62 18.8057 122.715 18.8057H119.619V23.8994Z" fill="white"/>
<path d="M140.326 13.5758V17.2258C139.964 17.1532 139.602 17.1169 139.24 17.1169C138.208 17.1169 137.375 17.4165 136.741 18.0157C136.107 18.5968 135.79 19.5593 135.79 20.9031V27.0319H132.178V13.6302H135.682V15.6187C136.334 14.2204 137.601 13.5213 139.484 13.5213C139.684 13.5213 139.964 13.5394 140.326 13.5758Z" fill="white"/>
<path d="M142.132 23.3819C142.132 22.2378 142.503 21.3208 143.246 20.6307C143.988 19.9406 144.948 19.5048 146.125 19.3232L149.411 18.8329C150.081 18.7421 150.416 18.4243 150.416 17.8795C150.416 17.3711 150.217 16.9534 149.819 16.6265C149.439 16.2997 148.886 16.1362 148.162 16.1362C147.401 16.1362 146.795 16.3451 146.342 16.7627C145.908 17.1804 145.663 17.698 145.609 18.3154L142.404 17.6344C142.53 16.4722 143.101 15.4462 144.115 14.5564C145.129 13.6666 146.469 13.2217 148.135 13.2217C150.127 13.2217 151.593 13.7029 152.535 14.6653C153.476 15.6096 153.947 16.8263 153.947 18.3154V24.9073C153.947 25.7063 154.002 26.4145 154.11 27.0319H150.797C150.706 26.6324 150.661 26.0967 150.661 25.4248C149.81 26.7504 148.497 27.4133 146.722 27.4133C145.346 27.4133 144.233 27.0137 143.382 26.2147C142.549 25.4157 142.132 24.4714 142.132 23.3819ZM147.483 24.7166C148.334 24.7166 149.031 24.4805 149.574 24.0084C150.136 23.5181 150.416 22.719 150.416 21.6113V21.0121L147.401 21.4751C146.297 21.6386 145.745 22.2015 145.745 23.1639C145.745 23.5998 145.898 23.972 146.206 24.2808C146.514 24.5713 146.94 24.7166 147.483 24.7166Z" fill="white"/>
<path d="M161.201 27.0319H157.589V13.6302H161.201V27.0319ZM157.154 9.24474C157.154 8.62732 157.371 8.10069 157.806 7.66487C158.24 7.21088 158.766 6.98389 159.381 6.98389C159.997 6.98389 160.522 7.2018 160.957 7.63763C161.391 8.07345 161.608 8.60916 161.608 9.24474C161.608 9.844 161.391 10.3615 160.957 10.7974C160.522 11.2332 159.997 11.4511 159.381 11.4511C158.766 11.4511 158.24 11.2332 157.806 10.7974C157.371 10.3615 157.154 9.844 157.154 9.24474Z" fill="white"/>
<path d="M168.681 19.3232V27.0319H165.069V13.6302H168.572V15.2918C168.953 14.6381 169.496 14.1387 170.202 13.7937C170.908 13.4486 171.651 13.2761 172.429 13.2761C174.005 13.2761 175.2 13.7755 176.015 14.7743C176.847 15.7549 177.264 17.0261 177.264 18.5878V27.0319H173.651V19.2143C173.651 18.4153 173.443 17.7706 173.027 17.2803C172.628 16.79 172.013 16.5448 171.18 16.5448C170.419 16.5448 169.813 16.8081 169.36 17.3348C168.907 17.8614 168.681 18.5242 168.681 19.3232Z" fill="white"/>
</svg>
