<svg width="178" height="37" viewBox="0 0 178 37" fill="none" xmlns="http://www.w3.org/2000/svg">
<path d="M14.3984 0.274414H17.9984V18.2745H16.1984L14.3984 0.274414Z" fill="#EE6430"/>
<path d="M21.5977 0.274414H17.9976V18.2745H19.7977L21.5977 0.274414Z" fill="#EE6430"/>
<path d="M14.3984 36.2744H17.9984V18.2744H16.1984L14.3984 36.2744Z" fill="#EE6430"/>
<path d="M21.5977 36.2744H17.9976V18.2744H19.7977L21.5977 36.2744Z" fill="#EE6430"/>
<path d="M0 21.8745L0 18.2745H18V20.0745L0 21.8745Z" fill="#EE6430"/>
<path d="M0 14.6743L0 18.2743H18V16.4743L0 14.6743Z" fill="#EE6430"/>
<path d="M36 21.874V18.274H18V20.074L36 21.874Z" fill="#EE6430"/>
<path d="M36 14.6738V18.2738H18V16.4738L36 14.6738Z" fill="#EE6430"/>
<path d="M2.72656 8.09229L5.27215 5.54669L18.0001 18.2746L16.7273 19.5474L2.72656 8.09229Z" fill="#EE6430"/>
<path d="M7.81836 3.00098L5.27277 5.54657L18.0007 18.2745L19.2735 17.0017L7.81836 3.00098Z" fill="#EE6430"/>
<path d="M28.1816 33.5479L30.7272 31.0023L17.9993 18.2743L16.7265 19.5471L28.1816 33.5479Z" fill="#EE6430"/>
<path d="M33.2734 28.4565L30.7278 31.0021L17.9999 18.2742L19.2727 17.0014L33.2734 28.4565Z" fill="#EE6430"/>
<path d="M28.1816 3.00098L30.7272 5.54657L17.9993 18.2745L16.7265 17.0017L28.1816 3.00098Z" fill="#EE6430"/>
<path d="M33.2734 8.09229L30.7278 5.54669L17.9999 18.2746L19.2727 19.5474L33.2734 8.09229Z" fill="#EE6430"/>
<path d="M2.72656 28.457L5.27215 31.0026L18.0001 18.2747L16.7273 17.0019L2.72656 28.457Z" fill="#EE6430"/>
<path d="M7.81836 33.5479L5.27277 31.0023L18.0007 18.2743L19.2735 19.5471L7.81836 33.5479Z" fill="#EE6430"/>
<path d="M14.3984 0.274414H17.9984V18.2745H16.1984L14.3984 0.274414Z" fill="#EE6430"/>
<path d="M21.5977 0.274414H17.9976V18.2745H19.7977L21.5977 0.274414Z" fill="#EE6430"/>
<path d="M14.3984 36.2744H17.9984V18.2744H16.1984L14.3984 36.2744Z" fill="#EE6430"/>
<path d="M21.5977 36.2744H17.9976V18.2744H19.7977L21.5977 36.2744Z" fill="#EE6430"/>
<path d="M0 21.8745L0 18.2745H18V20.0745L0 21.8745Z" fill="#EE6430"/>
<path d="M0 14.6743L0 18.2743H18V16.4743L0 14.6743Z" fill="#EE6430"/>
<path d="M36 21.874V18.274H18V20.074L36 21.874Z" fill="#EE6430"/>
<path d="M36 14.6738V18.2738H18V16.4738L36 14.6738Z" fill="#EE6430"/>
<path d="M2.72656 8.09229L5.27215 5.54669L18.0001 18.2746L16.7273 19.5474L2.72656 8.09229Z" fill="#EE6430"/>
<path d="M7.81836 3.00098L5.27277 5.54657L18.0007 18.2745L19.2735 17.0017L7.81836 3.00098Z" fill="#EE6430"/>
<path d="M28.1816 33.5479L30.7272 31.0023L17.9993 18.2743L16.7265 19.5471L28.1816 33.5479Z" fill="#EE6430"/>
<path d="M33.2734 28.4565L30.7278 31.0021L17.9999 18.2742L19.2727 17.0014L33.2734 28.4565Z" fill="#EE6430"/>
<path d="M28.1816 3.00098L30.7272 5.54657L17.9993 18.2745L16.7265 17.0017L28.1816 3.00098Z" fill="#EE6430"/>
<path d="M33.2734 8.09229L30.7278 5.54669L17.9999 18.2746L19.2727 19.5474L33.2734 8.09229Z" fill="#EE6430"/>
<path d="M2.72656 28.457L5.27215 31.0026L18.0001 18.2747L16.7273 17.0019L2.72656 28.457Z" fill="#EE6430"/>
<path d="M7.81836 33.5479L5.27277 31.0023L18.0007 18.2743L19.2735 19.5471L7.81836 33.5479Z" fill="#EE6430"/>
<path d="M65.8732 27.3063H62.1793V13.7685L56.6384 27.3063H53.5149L47.974 13.8774V27.3063H44.3887V7.99376H49.332L55.1174 21.9402L60.7669 7.99376H65.8732V27.3063Z" fill="#222222"/>
<path d="M72.5602 19.0801H78.5357C78.4995 18.3356 78.2279 17.7091 77.7208 17.2006C77.2319 16.6921 76.5076 16.4379 75.5479 16.4379C74.6788 16.4379 73.9726 16.7103 73.4294 17.2551C72.8861 17.7999 72.5964 18.4082 72.5602 19.0801ZM78.8888 22.5667L81.9037 23.4656C81.5415 24.7005 80.8263 25.7174 79.7579 26.5164C78.7077 27.3154 77.3949 27.7149 75.8196 27.7149C73.9002 27.7149 72.2705 27.0703 70.9305 25.7809C69.5906 24.4735 68.9206 22.7302 68.9206 20.551C68.9206 18.4808 69.5725 16.792 70.8762 15.4845C72.18 14.1589 73.7191 13.4961 75.4936 13.4961C77.5579 13.4961 79.1695 14.1135 80.3283 15.3483C81.5053 16.5832 82.0938 18.2811 82.0938 20.4421C82.0938 20.5873 82.0848 20.7508 82.0667 20.9324C82.0667 21.114 82.0667 21.2592 82.0667 21.3682L82.0395 21.5589H72.4787C72.5149 22.4305 72.859 23.1569 73.5109 23.738C74.1627 24.3191 74.9413 24.6097 75.8467 24.6097C77.3859 24.6097 78.3999 23.9287 78.8888 22.5667Z" fill="#222222"/>
<path d="M83.9879 28.0418L87.2472 27.1701C87.374 27.9147 87.718 28.523 88.2794 28.9952C88.8407 29.4673 89.5378 29.7034 90.3708 29.7034C92.7429 29.7034 93.9289 28.4595 93.9289 25.9716V24.991C93.6211 25.4813 93.1503 25.8899 92.5165 26.2168C91.8828 26.5436 91.1132 26.7071 90.2078 26.7071C88.4333 26.7071 86.9485 26.0897 85.7534 24.8548C84.5764 23.62 83.9879 22.0673 83.9879 20.1969C83.9879 18.381 84.5764 16.8374 85.7534 15.5662C86.9304 14.2951 88.4152 13.6595 90.2078 13.6595C91.1856 13.6595 92.0005 13.8411 92.6523 14.2043C93.3042 14.5493 93.7569 14.9761 94.0104 15.4845V13.9047H97.487V25.8627C97.487 27.8784 96.9076 29.549 95.7487 30.8747C94.5898 32.2185 92.8334 32.8904 90.4794 32.8904C88.723 32.8904 87.2472 32.4182 86.0521 31.4739C84.8752 30.5296 84.1871 29.3856 83.9879 28.0418ZM90.8325 23.6018C91.756 23.6018 92.5075 23.2931 93.0869 22.6757C93.6845 22.0583 93.9832 21.232 93.9832 20.1969C93.9832 19.18 93.6754 18.3628 93.0598 17.7454C92.4622 17.128 91.7198 16.8193 90.8325 16.8193C89.909 16.8193 89.1395 17.128 88.5238 17.7454C87.9263 18.3628 87.6275 19.18 87.6275 20.1969C87.6275 21.232 87.9263 22.0583 88.5238 22.6757C89.1214 23.2931 89.8909 23.6018 90.8325 23.6018Z" fill="#222222"/>
<path d="M100.198 23.6563C100.198 22.5122 100.569 21.5952 101.311 20.9051C102.054 20.2151 103.013 19.7792 104.19 19.5976L107.477 19.1073C108.147 19.0165 108.482 18.6988 108.482 18.154C108.482 17.6455 108.283 17.2278 107.884 16.901C107.504 16.5741 106.952 16.4107 106.227 16.4107C105.467 16.4107 104.86 16.6195 104.408 17.0372C103.973 17.4548 103.729 17.9724 103.674 18.5898L100.469 17.9088C100.596 16.7466 101.166 15.7206 102.18 14.8308C103.194 13.941 104.534 13.4961 106.2 13.4961C108.192 13.4961 109.659 13.9773 110.6 14.9397C111.542 15.884 112.013 17.1007 112.013 18.5898V25.1817C112.013 25.9807 112.067 26.6889 112.176 27.3063H108.862C108.772 26.9068 108.726 26.3711 108.726 25.6992C107.875 27.0249 106.562 27.6877 104.788 27.6877C103.412 27.6877 102.298 27.2882 101.447 26.4892C100.614 25.6901 100.198 24.7459 100.198 23.6563ZM105.548 24.991C106.399 24.991 107.097 24.7549 107.64 24.2828C108.201 23.7925 108.482 22.9935 108.482 21.8857V21.2865L105.467 21.7495C104.362 21.913 103.81 22.4759 103.81 23.4384C103.81 23.8742 103.964 24.2465 104.272 24.5552C104.58 24.8457 105.005 24.991 105.548 24.991Z" fill="#222222"/>
<path d="M115.926 7.99376H122.852C124.681 7.99376 126.111 8.47498 127.143 9.43744C128.194 10.3999 128.719 11.6529 128.719 13.1964C128.719 14.1771 128.456 15.0487 127.931 15.8114C127.406 16.5559 126.736 17.0644 125.921 17.3368C126.899 17.5729 127.705 18.1086 128.338 18.9439C128.99 19.7611 129.316 20.7508 129.316 21.913C129.316 23.4928 128.773 24.7913 127.687 25.8082C126.6 26.8069 125.161 27.3063 123.368 27.3063H115.926V7.99376ZM119.62 15.9748H122.281C123.133 15.9748 123.802 15.7569 124.291 15.3211C124.78 14.8853 125.025 14.2951 125.025 13.5506C125.025 12.806 124.78 12.2249 124.291 11.8072C123.821 11.3714 123.142 11.1535 122.254 11.1535H119.62V15.9748ZM119.62 24.1738H122.662C123.567 24.1738 124.273 23.9559 124.78 23.5201C125.305 23.0661 125.568 22.4487 125.568 21.6678C125.568 20.887 125.314 20.2605 124.807 19.7883C124.319 19.3162 123.621 19.0801 122.716 19.0801H119.62V24.1738Z" fill="#222222"/>
<path d="M140.327 13.8502V17.5002C139.965 17.4276 139.603 17.3913 139.241 17.3913C138.209 17.3913 137.376 17.6909 136.742 18.2902C136.108 18.8713 135.791 19.8337 135.791 21.1775V27.3063H132.179V13.9047H135.683V15.8931C136.335 14.4948 137.602 13.7957 139.485 13.7957C139.685 13.7957 139.965 13.8139 140.327 13.8502Z" fill="#222222"/>
<path d="M142.133 23.6563C142.133 22.5122 142.504 21.5952 143.247 20.9051C143.989 20.2151 144.949 19.7792 146.126 19.5976L149.412 19.1073C150.082 19.0165 150.417 18.6988 150.417 18.154C150.417 17.6455 150.218 17.2278 149.82 16.901C149.44 16.5741 148.887 16.4107 148.163 16.4107C147.402 16.4107 146.796 16.6195 146.343 17.0372C145.909 17.4548 145.664 17.9724 145.61 18.5898L142.405 17.9088C142.532 16.7466 143.102 15.7206 144.116 14.8308C145.13 13.941 146.47 13.4961 148.136 13.4961C150.128 13.4961 151.594 13.9773 152.536 14.9397C153.478 15.884 153.948 17.1007 153.948 18.5898V25.1817C153.948 25.9807 154.003 26.6889 154.111 27.3063H150.798C150.707 26.9068 150.662 26.3711 150.662 25.6992C149.811 27.0249 148.498 27.6877 146.723 27.6877C145.347 27.6877 144.234 27.2882 143.383 26.4892C142.55 25.6901 142.133 24.7459 142.133 23.6563ZM147.484 24.991C148.335 24.991 149.032 24.7549 149.575 24.2828C150.137 23.7925 150.417 22.9935 150.417 21.8857V21.2865L147.402 21.7495C146.298 21.913 145.746 22.4759 145.746 23.4384C145.746 23.8742 145.9 24.2465 146.207 24.5552C146.515 24.8457 146.941 24.991 147.484 24.991Z" fill="#222222"/>
<path d="M161.202 27.3063H157.59V13.9047H161.202V27.3063ZM157.155 9.51915C157.155 8.90173 157.372 8.37511 157.807 7.93928C158.241 7.48529 158.767 7.2583 159.382 7.2583C159.998 7.2583 160.523 7.47621 160.958 7.91204C161.392 8.34787 161.609 8.88357 161.609 9.51915C161.609 10.1184 161.392 10.636 160.958 11.0718C160.523 11.5076 159.998 11.7255 159.382 11.7255C158.767 11.7255 158.241 11.5076 157.807 11.0718C157.372 10.636 157.155 10.1184 157.155 9.51915Z" fill="#222222"/>
<path d="M168.682 19.5976V27.3063H165.07V13.9047H168.573V15.5662C168.954 14.9125 169.497 14.4131 170.203 14.0681C170.909 13.7231 171.652 13.5506 172.43 13.5506C174.006 13.5506 175.201 14.0499 176.016 15.0487C176.849 16.0293 177.265 17.3005 177.265 18.8622V27.3063H173.653V19.4887C173.653 18.6897 173.444 18.045 173.028 17.5547C172.629 17.0644 172.014 16.8193 171.181 16.8193C170.42 16.8193 169.814 17.0826 169.361 17.6092C168.908 18.1358 168.682 18.7986 168.682 19.5976Z" fill="#222222"/>
</svg>
