<svg width="480" height="98" viewBox="0 0 480 98" fill="none" xmlns="http://www.w3.org/2000/svg">
<path d="M39.126 0.274414H48.8712V49.0006H43.9986L39.126 0.274414Z" fill="#EE6430"/>
<path d="M58.6172 0.274414H48.8719V49.0006H53.7446L58.6172 0.274414Z" fill="#EE6430"/>
<path d="M39.126 97.7266H48.8712V49.0004H43.9986L39.126 97.7266Z" fill="#EE6430"/>
<path d="M58.6172 97.7266H48.8719V49.0004H53.7446L58.6172 97.7266Z" fill="#EE6430"/>
<path d="M0.145508 58.7456L0.145508 49.0004H48.8717V53.873L0.145508 58.7456Z" fill="#EE6430"/>
<path d="M0.145508 39.2549L0.145508 49.0001H48.8717V44.1275L0.145508 39.2549Z" fill="#EE6430"/>
<path d="M97.5977 58.7456V49.0004H48.8715V53.873L97.5977 58.7456Z" fill="#EE6430"/>
<path d="M97.5977 39.2549V49.0001H48.8715V44.1275L97.5977 39.2549Z" fill="#EE6430"/>
<path d="M7.52441 21.437L14.4153 14.5461L48.87 49.0007L45.4245 52.4462L7.52441 21.437Z" fill="#EE6430"/>
<path d="M21.3066 7.65527L14.4157 14.5462L48.8703 49.0008L52.3158 45.5554L21.3066 7.65527Z" fill="#EE6430"/>
<path d="M76.4346 90.3467L83.3255 83.4558L48.8709 49.0011L45.4254 52.4466L76.4346 90.3467Z" fill="#EE6430"/>
<path d="M90.2168 76.5649L83.3259 83.4559L48.8712 49.0012L52.3167 45.5558L90.2168 76.5649Z" fill="#EE6430"/>
<path d="M76.4336 7.65479L83.3245 14.5457L48.8699 49.0003L45.4244 45.5549L76.4336 7.65479Z" fill="#EE6430"/>
<path d="M90.2158 21.4365L83.3249 14.5456L48.8703 49.0002L52.3157 52.4457L90.2158 21.4365Z" fill="#EE6430"/>
<path d="M7.52441 76.564L14.4153 83.4549L48.87 49.0003L45.4245 45.5548L7.52441 76.564Z" fill="#EE6430"/>
<path d="M21.3066 90.3457L14.4157 83.4548L48.8703 49.0002L52.3158 52.4456L21.3066 90.3457Z" fill="#EE6430"/>
<path d="M39.126 0.274414H48.8712V49.0006H43.9986L39.126 0.274414Z" fill="#EE6430"/>
<path d="M58.6172 0.274414H48.8719V49.0006H53.7446L58.6172 0.274414Z" fill="#EE6430"/>
<path d="M39.126 97.7266H48.8712V49.0004H43.9986L39.126 97.7266Z" fill="#EE6430"/>
<path d="M58.6172 97.7266H48.8719V49.0004H53.7446L58.6172 97.7266Z" fill="#EE6430"/>
<path d="M0.145508 58.7456L0.145508 49.0004H48.8717V53.873L0.145508 58.7456Z" fill="#EE6430"/>
<path d="M0.145508 39.2549L0.145508 49.0001H48.8717V44.1275L0.145508 39.2549Z" fill="#EE6430"/>
<path d="M97.5977 58.7456V49.0004H48.8715V53.873L97.5977 58.7456Z" fill="#EE6430"/>
<path d="M97.5977 39.2549V49.0001H48.8715V44.1275L97.5977 39.2549Z" fill="#EE6430"/>
<path d="M7.52441 21.437L14.4153 14.5461L48.87 49.0007L45.4245 52.4462L7.52441 21.437Z" fill="#EE6430"/>
<path d="M21.3066 7.65527L14.4157 14.5462L48.8703 49.0008L52.3158 45.5554L21.3066 7.65527Z" fill="#EE6430"/>
<path d="M76.4346 90.3467L83.3255 83.4558L48.8709 49.0011L45.4254 52.4466L76.4346 90.3467Z" fill="#EE6430"/>
<path d="M90.2168 76.5649L83.3259 83.4559L48.8712 49.0012L52.3167 45.5558L90.2168 76.5649Z" fill="#EE6430"/>
<path d="M76.4336 7.65479L83.3245 14.5457L48.8699 49.0003L45.4244 45.5549L76.4336 7.65479Z" fill="#EE6430"/>
<path d="M90.2158 21.4365L83.3249 14.5456L48.8703 49.0002L52.3157 52.4457L90.2158 21.4365Z" fill="#EE6430"/>
<path d="M7.52441 76.564L14.4153 83.4549L48.87 49.0003L45.4245 45.5548L7.52441 76.564Z" fill="#EE6430"/>
<path d="M21.3066 90.3457L14.4157 83.4548L48.8703 49.0002L52.3158 52.4456L21.3066 90.3457Z" fill="#EE6430"/>
<path d="M178.462 73.4503H168.462V36.8032L153.463 73.4503H145.007L130.008 37.0982V73.4503H120.303V21.1711H133.684L149.345 58.9242L164.639 21.1711H178.462V73.4503Z" fill="white"/>
<path d="M196.563 51.1818H212.739C212.641 49.1664 211.906 47.4704 210.533 46.094C209.21 44.7176 207.249 44.0294 204.651 44.0294C202.298 44.0294 200.387 44.7668 198.916 46.2415C197.446 47.7162 196.661 49.363 196.563 51.1818ZM213.695 60.6201L221.856 63.0534C220.876 66.3962 218.94 69.149 216.048 71.3119C213.205 73.4749 209.651 74.5563 205.386 74.5563C200.19 74.5563 195.779 72.8112 192.152 69.321C188.524 65.7817 186.711 61.0625 186.711 55.1636C186.711 49.5596 188.475 44.988 192.005 41.4486C195.534 37.8601 199.7 36.0659 204.504 36.0659C210.092 36.0659 214.454 37.7372 217.592 41.0799C220.778 44.4227 222.371 49.0189 222.371 54.8687C222.371 55.2619 222.346 55.7044 222.297 56.1959C222.297 56.6875 222.297 57.0808 222.297 57.3757L222.224 57.8919H196.343C196.441 60.2514 197.372 62.2178 199.137 63.7908C200.901 65.3638 203.009 66.1504 205.46 66.1504C209.626 66.1504 212.371 64.307 213.695 60.6201Z" fill="white"/>
<path d="M227.498 75.4412L236.321 73.0816C236.664 75.0971 237.596 76.7439 239.115 78.022C240.635 79.3001 242.522 79.9391 244.777 79.9391C251.198 79.9391 254.408 76.5718 254.408 69.8372V67.1827C253.575 68.5099 252.301 69.616 250.585 70.5008C248.869 71.3857 246.786 71.8281 244.335 71.8281C239.532 71.8281 235.512 70.1567 232.277 66.814C229.091 63.4713 227.498 59.2683 227.498 54.205C227.498 49.2893 229.091 45.1109 232.277 41.6698C235.463 38.2288 239.483 36.5083 244.335 36.5083C246.982 36.5083 249.188 36.9998 250.953 37.983C252.717 38.917 253.943 40.0722 254.629 41.4486V37.1719H264.04V69.5423C264.04 74.9988 262.472 79.5213 259.335 83.1098C256.198 86.7474 251.443 88.5663 245.071 88.5663C240.316 88.5663 236.321 87.2882 233.086 84.732C229.9 82.1758 228.037 79.0788 227.498 75.4412ZM246.026 63.4221C248.526 63.4221 250.561 62.5864 252.129 60.9151C253.747 59.2437 254.555 57.007 254.555 54.205C254.555 51.4522 253.722 49.2401 252.056 47.5688C250.438 45.8974 248.428 45.0617 246.026 45.0617C243.527 45.0617 241.443 45.8974 239.777 47.5688C238.159 49.2401 237.35 51.4522 237.35 54.205C237.35 57.007 238.159 59.2437 239.777 60.9151C241.394 62.5864 243.478 63.4221 246.026 63.4221Z" fill="white"/>
<path d="M271.378 63.5696C271.378 60.4727 272.383 57.9902 274.392 56.1222C276.402 54.2542 279 53.0744 282.186 52.5828L291.083 51.2556C292.896 51.0098 293.803 50.1495 293.803 48.6748C293.803 47.2984 293.264 46.1678 292.186 45.2829C291.156 44.3981 289.661 43.9557 287.701 43.9557C285.642 43.9557 284 44.521 282.774 45.6516C281.598 46.7822 280.936 48.1832 280.789 49.8546L272.113 48.0112C272.456 44.8651 274 42.0877 276.745 39.6789C279.49 37.2702 283.117 36.0659 287.627 36.0659C293.019 36.0659 296.989 37.3685 299.538 39.9739C302.087 42.5301 303.362 45.8237 303.362 49.8546V67.6988C303.362 69.8618 303.509 71.7789 303.803 73.4503H294.833C294.587 72.3688 294.465 70.9187 294.465 69.0998C292.161 72.6883 288.607 74.4826 283.804 74.4826C280.078 74.4826 277.064 73.4011 274.76 71.2382C272.505 69.0753 271.378 66.5191 271.378 63.5696ZM285.862 67.1827C288.166 67.1827 290.053 66.5436 291.524 65.2655C293.043 63.9383 293.803 61.7753 293.803 58.7767V57.1545L285.642 58.408C282.652 58.8504 281.157 60.3743 281.157 62.9797C281.157 64.1595 281.573 65.1672 282.407 66.0029C283.24 66.7894 284.392 67.1827 285.862 67.1827Z" fill="white"/>
<path d="M313.954 21.1711H332.703C337.654 21.1711 341.526 22.4737 344.32 25.0791C347.163 27.6845 348.584 31.0763 348.584 35.2548C348.584 37.9093 347.874 40.2688 346.452 42.3335C345.031 44.3489 343.217 45.7253 341.011 46.4627C343.658 47.1018 345.839 48.5519 347.555 50.8132C349.32 53.0253 350.202 55.7044 350.202 58.8504C350.202 63.1272 348.731 66.6419 345.79 69.3948C342.849 72.0985 338.953 73.4503 334.1 73.4503H313.954V21.1711ZM323.953 42.7759H331.159C333.463 42.7759 335.276 42.186 336.6 41.0062C337.923 39.8264 338.585 38.2288 338.585 36.2133C338.585 34.1979 337.923 32.6248 336.6 31.4942C335.325 30.3144 333.487 29.7245 331.085 29.7245H323.953V42.7759ZM323.953 64.9706H332.188C334.639 64.9706 336.551 64.3807 337.923 63.2009C339.345 61.972 340.055 60.3006 340.055 58.1868C340.055 56.073 339.369 54.3771 337.997 53.099C336.673 51.8209 334.786 51.1818 332.335 51.1818H323.953V64.9706Z" fill="white"/>
<path d="M380.009 37.0244V46.9051C379.029 46.7085 378.049 46.6102 377.068 46.6102C374.274 46.6102 372.019 47.4213 370.304 49.0435C368.588 50.6165 367.73 53.2219 367.73 56.8596V73.4503H357.951V37.1719H367.436V42.5547C369.201 38.7695 372.632 36.877 377.73 36.877C378.269 36.877 379.029 36.9261 380.009 37.0244Z" fill="white"/>
<path d="M384.897 63.5696C384.897 60.4727 385.902 57.9902 387.912 56.1222C389.922 54.2542 392.52 53.0744 395.706 52.5828L404.602 51.2556C406.416 51.0098 407.323 50.1495 407.323 48.6748C407.323 47.2984 406.784 46.1678 405.705 45.2829C404.676 44.3981 403.181 43.9557 401.22 43.9557C399.162 43.9557 397.519 44.521 396.294 45.6516C395.118 46.7822 394.456 48.1832 394.309 49.8546L385.633 48.0112C385.976 44.8651 387.52 42.0877 390.265 39.6789C393.01 37.2702 396.637 36.0659 401.147 36.0659C406.539 36.0659 410.509 37.3685 413.058 39.9739C415.607 42.5301 416.881 45.8237 416.881 49.8546V67.6988C416.881 69.8618 417.028 71.7789 417.322 73.4503H408.352C408.107 72.3688 407.985 70.9187 407.985 69.0998C405.681 72.6883 402.127 74.4826 397.323 74.4826C393.598 74.4826 390.583 73.4011 388.28 71.2382C386.025 69.0753 384.897 66.5191 384.897 63.5696ZM399.382 67.1827C401.686 67.1827 403.573 66.5436 405.044 65.2655C406.563 63.9383 407.323 61.7753 407.323 58.7767V57.1545L399.161 58.408C396.171 58.8504 394.676 60.3743 394.676 62.9797C394.676 64.1595 395.093 65.1672 395.926 66.0029C396.76 66.7894 397.912 67.1827 399.382 67.1827Z" fill="white"/>
<path d="M436.517 73.4503H426.738V37.1719H436.517V73.4503ZM425.562 25.3003C425.562 23.6289 426.15 22.2034 427.326 21.0236C428.503 19.7946 429.924 19.1802 431.591 19.1802C433.257 19.1802 434.679 19.7701 435.855 20.9499C437.032 22.1296 437.62 23.5798 437.62 25.3003C437.62 26.9225 437.032 28.3235 435.855 29.5033C434.679 30.6831 433.257 31.273 431.591 31.273C429.924 31.273 428.503 30.6831 427.326 29.5033C426.15 28.3235 425.562 26.9225 425.562 25.3003Z" fill="white"/>
<path d="M456.765 52.5828V73.4503H446.986V37.1719H456.471V41.6698C457.501 39.9002 458.971 38.5483 460.883 37.6143C462.794 36.6803 464.804 36.2133 466.912 36.2133C471.176 36.2133 474.412 37.5652 476.617 40.2688C478.872 42.9234 480 46.3644 480 50.592V73.4503H470.221V52.2879C470.221 50.125 469.657 48.3799 468.529 47.0526C467.451 45.7253 465.785 45.0617 463.53 45.0617C461.471 45.0617 459.829 45.7745 458.604 47.2001C457.378 48.6256 456.765 50.4199 456.765 52.5828Z" fill="white"/>
</svg>
