<svg width="480" height="98" viewBox="0 0 480 98" fill="none" xmlns="http://www.w3.org/2000/svg">
<path d="M38.9805 0.274414H48.7257V49.0006H43.8531L38.9805 0.274414Z" fill="#EE6430"/>
<path d="M58.4707 0.274414H48.7255V49.0006H53.5981L58.4707 0.274414Z" fill="#EE6430"/>
<path d="M38.9805 97.7266H48.7257V49.0004H43.8531L38.9805 97.7266Z" fill="#EE6430"/>
<path d="M58.4707 97.7266H48.7255V49.0004H53.5981L58.4707 97.7266Z" fill="#EE6430"/>
<path d="M0 58.7456L0 49.0004H48.7262V53.873L0 58.7456Z" fill="#EE6430"/>
<path d="M0 39.2549L0 49.0001H48.7262V44.1275L0 39.2549Z" fill="#EE6430"/>
<path d="M97.4512 58.7456V49.0004H48.725V53.873L97.4512 58.7456Z" fill="#EE6430"/>
<path d="M97.4512 39.2549V49.0001H48.725V44.1275L97.4512 39.2549Z" fill="#EE6430"/>
<path d="M7.38086 21.437L14.2718 14.5461L48.7264 49.0007L45.2809 52.4462L7.38086 21.437Z" fill="#EE6430"/>
<path d="M21.1621 7.65527L14.2712 14.5462L48.7258 49.0008L52.1713 45.5554L21.1621 7.65527Z" fill="#EE6430"/>
<path d="M76.291 90.3462L83.1819 83.4553L48.7273 49.0006L45.2819 52.4461L76.291 90.3462Z" fill="#EE6430"/>
<path d="M90.0723 76.5645L83.1813 83.4554L48.7267 49.0008L52.1722 45.5553L90.0723 76.5645Z" fill="#EE6430"/>
<path d="M76.291 7.6543L83.1819 14.5452L48.7273 48.9998L45.2819 45.5544L76.291 7.6543Z" fill="#EE6430"/>
<path d="M90.0723 21.436L83.1813 14.5451L48.7267 48.9997L52.1722 52.4452L90.0723 21.436Z" fill="#EE6430"/>
<path d="M7.38086 76.5645L14.2718 83.4554L48.7264 49.0008L45.2809 45.5553L7.38086 76.5645Z" fill="#EE6430"/>
<path d="M21.1621 90.3462L14.2712 83.4553L48.7258 49.0006L52.1713 52.4461L21.1621 90.3462Z" fill="#EE6430"/>
<path d="M38.9805 0.274414H48.7257V49.0006H43.8531L38.9805 0.274414Z" fill="#EE6430"/>
<path d="M58.4707 0.274414H48.7255V49.0006H53.5981L58.4707 0.274414Z" fill="#EE6430"/>
<path d="M38.9805 97.7266H48.7257V49.0004H43.8531L38.9805 97.7266Z" fill="#EE6430"/>
<path d="M58.4707 97.7266H48.7255V49.0004H53.5981L58.4707 97.7266Z" fill="#EE6430"/>
<path d="M0 58.7456L0 49.0004H48.7262V53.873L0 58.7456Z" fill="#EE6430"/>
<path d="M0 39.2549L0 49.0001H48.7262V44.1275L0 39.2549Z" fill="#EE6430"/>
<path d="M97.4512 58.7456V49.0004H48.725V53.873L97.4512 58.7456Z" fill="#EE6430"/>
<path d="M97.4512 39.2549V49.0001H48.725V44.1275L97.4512 39.2549Z" fill="#EE6430"/>
<path d="M7.38086 21.437L14.2718 14.5461L48.7264 49.0007L45.2809 52.4462L7.38086 21.437Z" fill="#EE6430"/>
<path d="M21.1621 7.65527L14.2712 14.5462L48.7258 49.0008L52.1713 45.5554L21.1621 7.65527Z" fill="#EE6430"/>
<path d="M76.291 90.3462L83.1819 83.4553L48.7273 49.0006L45.2819 52.4461L76.291 90.3462Z" fill="#EE6430"/>
<path d="M90.0723 76.5645L83.1813 83.4554L48.7267 49.0008L52.1722 45.5553L90.0723 76.5645Z" fill="#EE6430"/>
<path d="M76.291 7.6543L83.1819 14.5452L48.7273 48.9998L45.2819 45.5544L76.291 7.6543Z" fill="#EE6430"/>
<path d="M90.0723 21.436L83.1813 14.5451L48.7267 48.9997L52.1722 52.4452L90.0723 21.436Z" fill="#EE6430"/>
<path d="M7.38086 76.5645L14.2718 83.4554L48.7264 49.0008L45.2809 45.5553L7.38086 76.5645Z" fill="#EE6430"/>
<path d="M21.1621 90.3462L14.2712 83.4553L48.7258 49.0006L52.1713 52.4461L21.1621 90.3462Z" fill="#EE6430"/>
<path d="M178.317 73.4503H168.318V36.8032L153.318 73.4503H144.863L129.864 37.0982V73.4503H120.158V21.1711H133.54L149.201 58.9242L164.494 21.1711H178.317V73.4503Z" fill="#222222"/>
<path d="M196.419 51.1818H212.594C212.496 49.1664 211.761 47.4704 210.389 46.094C209.065 44.7176 207.104 44.0294 204.507 44.0294C202.154 44.0294 200.242 44.7668 198.772 46.2415C197.301 47.7162 196.517 49.363 196.419 51.1818ZM213.55 60.6201L221.712 63.0534C220.731 66.3962 218.795 69.149 215.903 71.3119C213.06 73.4749 209.506 74.5563 205.242 74.5563C200.046 74.5563 195.634 72.8112 192.007 69.321C188.38 65.7817 186.566 61.0625 186.566 55.1636C186.566 49.5596 188.331 44.988 191.86 41.4486C195.389 37.8601 199.556 36.0659 204.359 36.0659C209.947 36.0659 214.31 37.7372 217.447 41.0799C220.633 44.4227 222.226 49.0189 222.226 54.8687C222.226 55.2619 222.202 55.7044 222.153 56.1959C222.153 56.6875 222.153 57.0808 222.153 57.3757L222.079 57.8919H196.198C196.296 60.2514 197.227 62.2178 198.992 63.7908C200.757 65.3638 202.864 66.1504 205.315 66.1504C209.482 66.1504 212.227 64.307 213.55 60.6201Z" fill="#222222"/>
<path d="M227.353 75.4412L236.177 73.0816C236.52 75.0971 237.451 76.7439 238.971 78.022C240.49 79.3001 242.377 79.9391 244.632 79.9391C251.053 79.9391 254.264 76.5718 254.264 69.8372V67.1827C253.431 68.5099 252.156 69.616 250.441 70.5008C248.725 71.3857 246.642 71.8281 244.191 71.8281C239.387 71.8281 235.368 70.1567 232.133 66.814C228.947 63.4713 227.353 59.2683 227.353 54.205C227.353 49.2893 228.947 45.1109 232.133 41.6698C235.319 38.2288 239.338 36.5083 244.191 36.5083C246.838 36.5083 249.044 36.9998 250.808 37.983C252.573 38.917 253.798 40.0722 254.484 41.4486V37.1719H263.896V69.5423C263.896 74.9988 262.327 79.5213 259.19 83.1098C256.053 86.7474 251.298 88.5663 244.926 88.5663C240.171 88.5663 236.177 87.2882 232.941 84.732C229.755 82.1758 227.893 79.0788 227.353 75.4412ZM245.882 63.4221C248.382 63.4221 250.416 62.5864 251.985 60.9151C253.602 59.2437 254.411 57.007 254.411 54.205C254.411 51.4522 253.578 49.2401 251.911 47.5688C250.293 45.8974 248.284 45.0617 245.882 45.0617C243.382 45.0617 241.299 45.8974 239.632 47.5688C238.015 49.2401 237.206 51.4522 237.206 54.205C237.206 57.007 238.015 59.2437 239.632 60.9151C241.25 62.5864 243.333 63.4221 245.882 63.4221Z" fill="#222222"/>
<path d="M271.233 63.5696C271.233 60.4727 272.238 57.9902 274.248 56.1222C276.258 54.2542 278.856 53.0744 282.042 52.5828L290.938 51.2556C292.752 51.0098 293.659 50.1495 293.659 48.6748C293.659 47.2984 293.119 46.1678 292.041 45.2829C291.012 44.3981 289.517 43.9557 287.556 43.9557C285.497 43.9557 283.855 44.521 282.63 45.6516C281.453 46.7822 280.792 48.1832 280.645 49.8546L271.969 48.0112C272.312 44.8651 273.856 42.0877 276.601 39.6789C279.346 37.2702 282.973 36.0659 287.483 36.0659C292.874 36.0659 296.845 37.3685 299.394 39.9739C301.943 42.5301 303.217 45.8237 303.217 49.8546V67.6988C303.217 69.8618 303.364 71.7789 303.658 73.4503H294.688C294.443 72.3688 294.32 70.9187 294.32 69.0998C292.017 72.6883 288.463 74.4826 283.659 74.4826C279.934 74.4826 276.919 73.4011 274.616 71.2382C272.361 69.0753 271.233 66.5191 271.233 63.5696ZM285.718 67.1827C288.022 67.1827 289.909 66.5436 291.379 65.2655C292.899 63.9383 293.659 61.7753 293.659 58.7767V57.1545L285.497 58.408C282.507 58.8504 281.012 60.3743 281.012 62.9797C281.012 64.1595 281.429 65.1672 282.262 66.0029C283.095 66.7894 284.247 67.1827 285.718 67.1827Z" fill="#222222"/>
<path d="M313.809 21.1711H332.558C337.509 21.1711 341.381 22.4737 344.175 25.0791C347.018 27.6845 348.44 31.0763 348.44 35.2548C348.44 37.9093 347.729 40.2688 346.308 42.3335C344.886 44.3489 343.073 45.7253 340.867 46.4627C343.514 47.1018 345.695 48.5519 347.411 50.8132C349.175 53.0253 350.057 55.7044 350.057 58.8504C350.057 63.1272 348.587 66.6419 345.646 69.3948C342.705 72.0985 338.808 73.4503 333.955 73.4503H313.809V21.1711ZM323.809 42.7759H331.014C333.318 42.7759 335.132 42.186 336.455 41.0062C337.779 39.8264 338.44 38.2288 338.44 36.2133C338.44 34.1979 337.779 32.6248 336.455 31.4942C335.181 30.3144 333.343 29.7245 330.941 29.7245H323.809V42.7759ZM323.809 64.9706H332.044C334.495 64.9706 336.406 64.3807 337.779 63.2009C339.2 61.972 339.911 60.3006 339.911 58.1868C339.911 56.073 339.225 54.3771 337.852 53.099C336.529 51.8209 334.642 51.1818 332.191 51.1818H323.809V64.9706Z" fill="#222222"/>
<path d="M379.865 37.0244V46.9051C378.884 46.7085 377.904 46.6102 376.924 46.6102C374.13 46.6102 371.875 47.4213 370.159 49.0435C368.444 50.6165 367.586 53.2219 367.586 56.8596V73.4503H357.807V37.1719H367.292V42.5547C369.056 38.7695 372.488 36.877 377.585 36.877C378.125 36.877 378.884 36.9261 379.865 37.0244Z" fill="#222222"/>
<path d="M384.753 63.5696C384.753 60.4727 385.758 57.9902 387.768 56.1222C389.777 54.2542 392.375 53.0744 395.561 52.5828L404.458 51.2556C406.271 51.0098 407.178 50.1495 407.178 48.6748C407.178 47.2984 406.639 46.1678 405.561 45.2829C404.531 44.3981 403.036 43.9557 401.076 43.9557C399.017 43.9557 397.375 44.521 396.149 45.6516C394.973 46.7822 394.311 48.1832 394.164 49.8546L385.488 48.0112C385.831 44.8651 387.375 42.0877 390.12 39.6789C392.865 37.2702 396.493 36.0659 401.002 36.0659C406.394 36.0659 410.364 37.3685 412.913 39.9739C415.462 42.5301 416.737 45.8237 416.737 49.8546V67.6988C416.737 69.8618 416.884 71.7789 417.178 73.4503H408.208C407.963 72.3688 407.84 70.9187 407.84 69.0998C405.536 72.6883 401.982 74.4826 397.179 74.4826C393.454 74.4826 390.439 73.4011 388.135 71.2382C385.88 69.0753 384.753 66.5191 384.753 63.5696ZM399.238 67.1827C401.541 67.1827 403.428 66.5436 404.899 65.2655C406.419 63.9383 407.178 61.7753 407.178 58.7767V57.1545L399.017 58.408C396.027 58.8504 394.532 60.3743 394.532 62.9797C394.532 64.1595 394.949 65.1672 395.782 66.0029C396.615 66.7894 397.767 67.1827 399.238 67.1827Z" fill="#222222"/>
<path d="M436.373 73.4503H426.594V37.1719H436.373V73.4503ZM425.417 25.3003C425.417 23.6289 426.005 22.2034 427.182 21.0236C428.358 19.7946 429.78 19.1802 431.446 19.1802C433.113 19.1802 434.534 19.7701 435.711 20.9499C436.887 22.1296 437.475 23.5798 437.475 25.3003C437.475 26.9225 436.887 28.3235 435.711 29.5033C434.534 30.6831 433.113 31.273 431.446 31.273C429.78 31.273 428.358 30.6831 427.182 29.5033C426.005 28.3235 425.417 26.9225 425.417 25.3003Z" fill="#222222"/>
<path d="M456.621 52.5828V73.4503H446.842V37.1719H456.327V41.6698C457.356 39.9002 458.827 38.5483 460.738 37.6143C462.65 36.6803 464.66 36.2133 466.767 36.2133C471.032 36.2133 474.267 37.5652 476.473 40.2688C478.728 42.9234 479.855 46.3644 479.855 50.592V73.4503H470.076V52.2879C470.076 50.125 469.512 48.3799 468.385 47.0526C467.307 45.7253 465.64 45.0617 463.385 45.0617C461.326 45.0617 459.684 45.7745 458.459 47.2001C457.234 48.6256 456.621 50.4199 456.621 52.5828Z" fill="#222222"/>
</svg>
